<?xml version="1.0" standalone="no"?>
<!DOCTYPE svg PUBLIC "-//W3C//DTD SVG 20010904//EN"
 "http://www.w3.org/TR/2001/REC-SVG-20010904/DTD/svg10.dtd">
<svg version="1.0" xmlns="http://www.w3.org/2000/svg"
 width="512.000000pt" height="512.000000pt" viewBox="0 0 512.000000 512.000000"
 preserveAspectRatio="xMidYMid meet">
<metadata>
Created by potrace 1.14, written by Peter Selinger 2001-2017
</metadata>
<g transform="translate(0.000000,512.000000) scale(0.100000,-0.100000)"
fill="#000000" stroke="none">
<path d="M2808 4565 c-2 -2 -17 -7 -33 -10 -17 -3 -35 -7 -41 -8 -7 -2 -18 -8
-25 -13 -37 -29 -85 -36 -121 -19 -78 38 -124 23 -148 -45 -21 -62 -44 -63
-72 -6 -12 25 -26 46 -30 46 -4 0 -8 6 -8 13 0 8 -6 15 -12 16 -82 12 -113 12
-154 -4 -36 -14 -46 -23 -55 -54 -10 -32 -8 -43 10 -79 24 -47 26 -73 9 -90
-21 -21 -36 -13 -63 37 -38 69 -51 74 -216 87 -74 6 -76 6 -97 -21 -26 -32
-28 -59 -7 -108 22 -52 -4 -65 -51 -24 -28 24 -66 35 -102 29 -25 -5 -123 -95
-141 -129 -19 -37 10 -133 39 -133 5 0 44 -33 85 -74 74 -73 91 -108 59 -120
-26 -10 -58 14 -138 104 -105 117 -155 131 -220 64 -32 -33 -56 -90 -56 -134
0 -24 39 -100 51 -100 5 0 23 -16 42 -35 19 -19 37 -35 40 -35 13 0 89 -86
107 -121 34 -66 30 -113 -10 -128 -26 -8 -34 -7 -55 12 -14 12 -28 34 -30 49
-3 15 -10 40 -16 54 -11 31 -100 144 -112 144 -5 0 -6 4 -3 8 3 5 -7 16 -23
25 -41 24 -104 13 -144 -24 -10 -9 -39 -22 -65 -29 -98 -25 -130 -40 -140 -68
-20 -52 -21 -62 -11 -62 6 0 8 -4 5 -9 -8 -12 33 -93 44 -86 5 3 11 2 14 -3 7
-12 68 -2 84 15 8 8 15 30 17 49 3 43 4 44 87 78 63 26 68 27 91 11 21 -14 35
-31 42 -55 1 -3 9 -23 19 -45 10 -22 19 -44 20 -50 5 -23 36 -72 60 -94 32
-30 89 -34 138 -10 21 11 47 19 59 19 37 0 83 -36 119 -94 19 -31 38 -56 43
-56 4 0 7 -6 7 -13 0 -25 70 -47 138 -44 54 2 66 -1 81 -19 18 -22 53 -44 70
-44 6 0 19 9 29 20 25 27 18 61 -19 94 -32 28 -31 26 -31 105 0 73 -21 105
-148 231 -115 115 -144 129 -185 90 -35 -33 -22 -66 44 -108 78 -50 178 -157
192 -206 14 -53 7 -66 -39 -66 -42 0 -65 18 -98 80 -22 40 -30 48 -101 95 -29
19 -53 38 -54 42 -1 5 -3 29 -5 56 -4 58 -39 119 -98 175 -25 23 -47 42 -50
42 -14 0 -76 69 -86 94 -8 23 -7 32 5 46 30 33 63 18 120 -56 54 -70 104 -114
131 -114 14 0 44 11 68 25 40 23 43 24 67 7 15 -9 38 -28 51 -41 14 -13 45
-32 69 -41 36 -14 50 -28 77 -75 18 -32 44 -70 59 -84 24 -24 51 -76 58 -111
2 -8 4 -17 6 -20 1 -3 3 -9 4 -15 2 -5 4 -12 5 -15 1 -3 3 -14 5 -25 1 -11 5
-36 9 -55 3 -19 8 -53 12 -75 9 -62 43 -126 93 -173 25 -24 73 -69 107 -101
33 -32 70 -62 82 -65 39 -13 80 53 54 89 -4 6 -23 21 -42 34 -19 13 -51 39
-70 57 -19 18 -47 44 -61 56 -30 26 -59 78 -65 117 -2 14 -9 49 -15 76 -5 28
-13 68 -16 90 -9 69 -44 148 -95 213 -26 35 -48 73 -48 85 0 12 12 42 26 67
40 69 38 131 -8 229 -22 46 -53 65 -121 74 -41 5 -82 37 -93 70 -7 23 14 67
33 67 11 0 31 71 25 92 -1 4 9 10 22 14 32 8 71 -15 125 -71 38 -40 45 -52 48
-98 4 -53 39 -147 55 -147 5 0 7 -4 3 -9 -3 -5 -1 -12 4 -16 15 -9 41 -66 41
-91 0 -12 -11 -45 -25 -72 -30 -60 -28 -102 9 -161 15 -22 26 -44 26 -49 0 -4
5 -13 12 -20 6 -6 13 -20 15 -29 2 -10 6 -27 8 -38 2 -11 9 -38 15 -60 5 -22
13 -58 16 -80 8 -58 34 -136 56 -167 10 -14 42 -44 71 -65 72 -52 73 -53 129
-205 14 -37 52 -60 107 -65 40 -3 51 -9 81 -46 41 -50 91 -99 147 -146 32 -27
40 -41 41 -69 3 -85 27 -107 162 -153 48 -15 68 -33 119 -103 46 -62 107 -99
184 -110 22 -4 71 -14 110 -23 40 -9 75 -16 78 -15 4 0 46 -19 95 -44 49 -25
102 -47 119 -48 17 -2 56 10 89 25 55 26 61 27 93 14 19 -8 46 -23 61 -33 49
-35 95 -54 136 -58 72 -6 90 -14 138 -62 54 -52 77 -104 57 -128 -7 -8 -18
-13 -26 -10 -20 8 -63 -11 -89 -39 -29 -31 -45 -31 -82 0 -28 24 -43 59 -47
110 -5 62 -93 115 -196 119 -33 1 -59 -2 -59 -6 0 -4 -3 -7 -7 -6 -5 2 -25 -7
-45 -20 -42 -26 -79 -24 -118 8 -91 73 -187 115 -277 122 -18 1 -33 5 -33 8 0
3 -10 5 -22 6 -80 2 -147 28 -186 73 -13 14 -38 42 -56 61 -18 19 -47 54 -65
78 -26 33 -39 42 -63 42 -32 0 -57 -23 -58 -52 0 -16 65 -90 175 -201 59 -59
101 -79 190 -92 17 -3 44 -8 60 -11 17 -4 39 -8 50 -10 86 -13 152 -41 187
-79 13 -14 48 -38 78 -53 39 -20 60 -39 71 -63 10 -19 15 -37 13 -40 -2 -3 17
-28 41 -55 51 -55 55 -77 21 -123 -13 -18 -23 -40 -21 -49 2 -9 4 -20 4 -24 1
-11 85 -91 135 -129 49 -38 61 -62 43 -90 -21 -34 -67 -24 -107 21 -155 180
-172 190 -308 199 -7 1 -28 25 -47 54 -42 64 -60 87 -68 87 -3 0 -26 12 -51
27 -51 31 -61 50 -57 113 1 25 43 27 88 5 46 -23 166 -147 187 -192 26 -58 83
-72 112 -28 26 40 5 76 -109 190 -117 117 -161 143 -225 134 -24 -3 -45 -2
-48 3 -3 5 -9 6 -14 3 -5 -3 -25 11 -46 30 -39 37 -66 39 -91 7 -19 -24 -16
-51 10 -75 31 -29 44 -56 40 -85 -2 -12 -4 -32 -6 -45 -7 -51 24 -93 108 -149
65 -42 105 -91 105 -126 0 -12 -9 -36 -20 -54 -28 -46 -26 -99 5 -137 27 -31
125 -83 168 -90 22 -3 66 -33 81 -56 14 -21 15 -29 5 -41 -6 -8 -9 -14 -5 -14
3 0 -3 -17 -14 -37 -11 -21 -20 -43 -20 -49 0 -19 -27 -35 -66 -39 -20 -2 -41
-9 -45 -17 -9 -13 -14 -54 -9 -73 1 -5 3 -16 3 -24 0 -7 20 -23 45 -33 88 -39
149 -5 171 96 18 82 19 86 36 102 24 24 36 51 40 90 2 30 -3 41 -34 72 -81 81
-139 124 -175 129 -78 12 -115 49 -96 97 11 30 39 40 74 27 14 -6 26 -8 26 -5
0 13 59 -29 97 -68 68 -71 112 -119 115 -128 7 -18 83 -60 108 -60 37 0 110
33 137 62 50 53 47 109 -9 160 -130 121 -169 163 -166 182 6 43 43 31 111 -36
35 -35 70 -73 76 -85 13 -26 76 -60 106 -58 11 0 31 7 45 14 34 19 108 100
119 132 11 32 -9 93 -39 121 -18 17 -20 23 -8 34 11 11 20 11 53 0 88 -31 132
7 121 102 -4 31 -7 74 -8 95 -1 20 -5 37 -9 37 -5 0 -6 6 -3 13 6 17 -28 53
-76 77 -48 24 -54 56 -14 66 17 4 42 -1 74 -16 43 -20 52 -21 80 -10 44 18 62
51 65 119 4 74 -16 110 -79 139 -60 29 -62 54 -4 71 74 23 90 61 57 137 -22
49 -20 73 12 135 26 50 34 144 16 184 -14 29 -65 56 -95 50 -32 -6 -53 -19
-106 -69 -27 -25 -53 -46 -58 -46 -5 0 -18 -9 -30 -20 -30 -28 -84 -51 -102
-44 -8 3 -18 15 -22 27 -12 37 77 106 260 201 66 34 93 65 101 114 3 19 6 37
7 40 1 4 -2 22 -6 39 -14 62 -80 90 -136 58 -33 -19 -86 -19 -93 -1 -6 14 27
43 55 48 24 5 86 77 82 95 -2 10 -5 34 -8 53 -9 78 -39 114 -103 123 -25 4
-42 -2 -70 -22 -36 -26 -59 -38 -93 -49 -8 -2 -67 -5 -132 -6 -116 -1 -116 -1
-155 -34 -21 -18 -65 -46 -98 -61 -81 -39 -115 -71 -150 -144 -26 -53 -34 -62
-60 -64 -16 -1 -57 -4 -90 -6 -69 -6 -247 -48 -287 -70 -39 -20 -74 -69 -84
-116 -5 -23 -20 -33 -59 -36 -40 -4 -75 21 -75 53 1 47 14 65 66 88 70 31 97
70 124 179 30 125 30 122 36 200 8 109 8 109 69 134 67 28 123 88 149 160 10
28 23 55 30 59 7 4 24 23 39 43 23 30 26 43 22 85 -6 63 -6 122 0 154 3 14 7
36 10 49 2 13 12 32 22 43 31 34 52 90 43 114 -5 12 -7 24 -4 27 10 9 -58 57
-81 57 -13 0 -26 4 -29 9 -8 13 -82 4 -109 -13 -13 -9 -34 -39 -47 -66 -16
-33 -30 -50 -42 -50 -10 0 -19 6 -20 13 0 6 -2 19 -2 27 -1 8 6 30 16 48 51
93 -38 171 -152 133 -52 -17 -66 -32 -114 -126 -70 -135 -140 -226 -179 -233
-25 -4 -41 43 -25 72 32 56 90 137 127 175 23 24 41 46 42 49 0 4 2 19 4 33 4
32 -39 87 -72 94 -13 3 -32 7 -42 9 -11 3 -21 3 -23 1z m7 -135 c6 -10 -24
-70 -35 -70 -11 0 -89 -79 -101 -102 -7 -13 -12 -48 -12 -80 1 -45 6 -64 26
-90 53 -69 57 -135 12 -184 -60 -65 -95 -3 -110 196 -9 133 -12 142 -60 195
-50 56 -55 77 -24 98 17 13 28 13 70 2 48 -13 115 -5 129 14 18 27 92 41 105
21z m-551 -10 c14 -5 32 -24 42 -41 21 -42 44 -65 71 -73 59 -18 122 -115 122
-186 -1 -41 -17 -90 -31 -90 -5 0 -6 5 -3 10 3 6 2 10 -3 10 -5 0 -24 14 -41
32 -22 23 -31 41 -31 66 0 67 -48 107 -95 76 -40 -26 -39 -54 6 -147 47 -97
71 -115 127 -91 18 7 32 18 32 24 0 17 28 11 34 -7 7 -23 17 -73 19 -96 1 -10
16 -32 34 -51 36 -37 41 -67 22 -135 -18 -64 9 -180 51 -221 55 -54 65 -82 42
-123 -21 -35 -47 -43 -78 -22 -24 15 -63 85 -64 112 0 6 -5 24 -12 40 -6 15
-11 31 -10 35 1 4 -3 20 -9 35 -6 15 -13 60 -15 98 -7 117 -13 158 -29 182
-18 27 -70 56 -105 58 -52 4 -85 24 -102 65 -9 23 -17 44 -18 48 -1 4 -8 14
-15 22 -8 9 -20 39 -26 67 -11 47 -10 53 16 101 28 52 38 113 23 144 -7 15 5
68 16 68 3 0 16 -4 30 -10z m876 -65 c7 -8 12 -38 12 -67 -1 -29 1 -80 4 -114
5 -53 9 -62 33 -77 49 -29 97 -4 105 56 8 51 20 71 61 103 73 55 114 1 59 -79
-44 -66 -52 -103 -38 -171 8 -37 9 -65 3 -72 -5 -6 -6 -13 -3 -17 3 -3 -4 -8
-16 -12 -17 -5 -33 5 -78 50 -31 31 -77 65 -102 76 -28 13 -55 35 -72 60 -27
38 -48 46 -82 33 -8 -3 -32 -40 -53 -82 -20 -43 -41 -80 -46 -83 -5 -3 -8 -10
-7 -15 3 -17 -23 -94 -31 -94 -5 0 -9 -6 -9 -13 0 -7 -21 -35 -46 -62 -70 -76
-84 -102 -72 -136 5 -16 24 -39 41 -51 67 -47 87 -77 87 -130 0 -31 -43 -135
-61 -148 -4 -3 -13 -21 -22 -41 -12 -30 -13 -42 -2 -73 7 -21 23 -48 35 -61
25 -26 31 -66 17 -111 -22 -72 22 -155 94 -174 30 -8 55 -8 94 1 l54 12 55
-37 c65 -45 98 -45 176 3 28 17 55 31 60 31 6 0 10 4 10 8 0 5 8 9 18 10 73 8
114 -3 142 -40 94 -120 112 -119 258 20 21 19 62 39 112 52 25 7 56 20 70 30
14 10 49 28 78 40 28 12 52 25 53 29 0 3 2 18 4 33 3 25 -16 58 -33 58 -4 0
-20 11 -36 25 -16 14 -26 25 -22 25 17 0 -38 83 -84 126 -27 26 -50 56 -50 66
0 21 45 42 69 33 9 -4 41 -8 72 -10 49 -4 62 0 105 27 53 33 117 48 129 29 22
-37 -49 -125 -105 -129 -63 -5 -96 -40 -85 -92 9 -42 62 -60 168 -58 86 2 117
-8 117 -37 0 -17 -45 -53 -90 -71 -68 -28 -155 -96 -191 -147 l-35 -52 -66 -6
c-79 -7 -128 -28 -162 -72 -15 -17 -31 -37 -36 -44 -6 -7 -10 -16 -10 -21 0
-5 -24 -17 -54 -27 -75 -26 -124 -11 -201 61 -32 29 -61 51 -66 49 -4 -3 -10
-1 -13 4 -11 17 -93 -19 -135 -60 -23 -21 -48 -39 -57 -39 -8 0 -51 18 -97 40
-98 47 -126 53 -175 36 -20 -7 -49 -10 -64 -7 -28 6 -110 79 -154 137 -25 33
-26 35 -13 86 16 65 17 70 10 83 -3 6 -6 16 -7 22 -1 7 -18 46 -38 86 -20 39
-36 80 -36 89 0 9 16 35 36 59 80 96 81 136 4 220 -65 70 -80 125 -57 204 7
24 25 43 68 74 59 42 92 99 94 165 1 64 11 93 33 100 49 16 123 105 176 213
41 83 68 102 96 68z m-1459 -178 c15 -12 63 -105 61 -119 -1 -3 16 -24 37 -46
28 -29 51 -42 82 -48 76 -14 86 -20 95 -57 15 -63 -4 -120 -40 -123 -35 -2
-155 100 -191 163 -27 46 -70 93 -86 93 -20 0 -69 64 -69 90 0 49 70 79 111
47z m1471 -246 c26 -26 68 -59 93 -72 25 -13 48 -32 51 -41 14 -44 -74 -148
-124 -148 -32 0 -45 37 -24 70 20 32 23 81 4 99 -20 20 -69 18 -90 -5 -17 -18
-22 -45 -24 -125 -1 -33 30 -129 42 -129 14 0 -11 -236 -29 -265 -3 -5 -6 -18
-7 -27 -1 -10 -2 -19 -4 -20 -1 -2 -3 -11 -5 -20 -6 -32 -44 -76 -71 -81 -35
-6 -65 23 -58 57 2 15 20 55 40 91 29 52 37 79 41 139 7 92 -5 125 -58 162
-48 33 -50 59 -9 105 31 34 82 129 87 162 4 25 33 80 47 89 25 17 53 5 98 -41z
m-821 -114 c27 -21 37 -51 38 -112 0 -33 9 -91 20 -130 11 -38 17 -73 15 -77
-3 -4 0 -8 7 -8 7 0 10 -3 7 -6 -3 -3 4 -39 17 -80 25 -80 49 -111 111 -140
25 -12 41 -29 51 -53 8 -20 29 -67 46 -105 27 -59 32 -84 28 -125 -1 -5 -10
-13 -21 -16 -37 -12 -66 19 -90 92 -13 37 -29 75 -36 84 -8 8 -14 21 -14 27 0
7 -5 12 -10 12 -6 0 -33 17 -60 38 -52 39 -87 98 -95 158 -2 20 -7 44 -9 53
-3 9 -7 27 -10 41 -18 90 -31 131 -68 208 -31 65 -33 107 -7 139 14 16 59 17
80 0z m1536 -579 c17 -29 52 -74 77 -101 25 -26 46 -56 46 -66 0 -22 -41 -54
-80 -65 -55 -15 -127 -52 -171 -88 -26 -21 -54 -38 -63 -38 -17 0 -44 24 -62
56 -21 36 -54 45 -139 40 -100 -7 -106 -8 -138 -29 -15 -9 -31 -17 -37 -17 -5
0 -10 -4 -10 -8 0 -16 -64 -29 -88 -19 -47 21 -32 81 28 112 28 15 114 36 153
38 9 1 17 4 17 7 0 3 12 7 28 7 120 7 162 7 162 -1 0 -5 3 -6 7 -3 3 4 17 0
30 -9 29 -19 58 -26 98 -24 91 4 119 13 133 45 12 25 1 74 -15 76 -5 0 -18 2
-31 5 -13 2 -36 -3 -52 -11 -39 -20 -67 -19 -79 3 -21 40 72 142 129 142 20 0
32 -11 57 -52z m581 -455 c2 -11 -11 -48 -28 -82 -21 -41 -30 -70 -26 -84 17
-59 18 -104 1 -121 -22 -22 -47 -13 -93 31 -48 46 -71 55 -172 58 -121 5 -204
23 -229 49 -19 20 -19 24 -5 44 40 58 114 64 186 17 45 -30 77 -39 126 -37 47
3 84 25 132 79 63 72 102 89 108 46z m-1350 -142 c31 -16 76 -35 100 -42 35
-10 48 -21 70 -58 42 -72 74 -98 147 -116 42 -10 49 -12 151 -39 50 -14 116
-25 146 -25 72 0 113 -20 121 -60 8 -37 1 -57 -21 -66 -39 -16 -69 -12 -136
20 -60 28 -144 54 -231 71 -11 2 -31 6 -45 9 -14 3 -36 7 -50 10 -43 8 -84 35
-110 73 -51 74 -96 109 -167 132 -77 25 -103 43 -103 75 0 50 49 56 128 16z
m386 -7 c30 -29 70 -56 91 -60 6 -1 31 -8 57 -15 40 -11 56 -11 90 0 73 22
103 18 142 -21 19 -19 41 -35 48 -36 54 -4 90 -12 101 -20 7 -5 21 -7 32 -5
113 28 211 -6 256 -90 17 -31 44 -60 77 -83 39 -26 52 -41 52 -59 0 -30 -25
-45 -59 -35 -14 4 -40 6 -56 5 -17 -2 -38 -3 -47 -4 -9 -1 -23 -8 -32 -16 -23
-24 -67 -36 -100 -29 -37 8 -181 81 -196 99 -6 7 -12 29 -14 48 -10 98 -67
147 -172 147 -54 0 -113 8 -179 24 -80 20 -142 39 -152 48 -7 6 -13 7 -13 2 0
-4 -13 5 -30 21 -36 35 -38 62 -5 91 33 29 72 24 109 -12z m462 -710 c12 -14
24 -43 27 -64 8 -59 43 -97 129 -138 98 -47 119 -83 77 -136 -36 -46 -77 -32
-129 44 -36 52 -51 65 -96 88 -40 20 -141 127 -136 143 1 5 -2 9 -7 9 -15 0
-21 31 -10 51 23 45 111 46 145 3z"/>
<path d="M4000 2428 c-11 -18 -20 -37 -20 -41 0 -20 35 -66 54 -72 12 -4 23
-8 26 -9 3 -1 28 -14 56 -29 58 -30 89 -28 113 5 22 33 22 46 -2 74 -17 19
-32 25 -62 26 -39 0 -95 34 -95 56 0 10 -23 22 -41 22 -5 0 -18 -15 -29 -32z"/>
<path d="M3619 4223 c-43 -17 -64 -51 -55 -87 5 -20 16 -28 51 -37 40 -10 44
-14 40 -36 -4 -25 -11 -35 -55 -86 -37 -42 -43 -75 -23 -120 16 -37 16 -38 -7
-55 -13 -9 -27 -19 -30 -22 -4 -3 -24 -30 -45 -60 -69 -99 -86 -118 -143 -161
-91 -69 -101 -88 -87 -177 7 -42 5 -46 -33 -83 -42 -40 -44 -49 -24 -86 9 -16
22 -23 42 -23 27 0 60 22 60 39 0 14 64 40 75 31 5 -4 32 -7 59 -6 50 2 75 21
131 100 32 46 54 65 145 127 34 23 72 56 86 75 l26 33 36 -19 c42 -23 75 -18
112 17 38 36 89 66 103 60 7 -3 19 -23 26 -46 6 -23 15 -41 19 -42 4 0 16 -2
26 -4 30 -6 54 12 75 53 49 98 -40 191 -168 173 -5 0 -27 -19 -48 -41 -41 -44
-76 -50 -81 -15 -1 11 -5 29 -7 41 -6 27 -127 149 -151 152 -81 9 -85 21 -29
81 43 46 47 54 47 101 -1 42 -6 57 -31 86 -17 19 -31 32 -31 28 0 -3 -6 -2
-13 4 -21 18 -60 20 -98 5z m152 -459 c72 -73 90 -112 62 -139 -12 -12 -18
-13 -29 -4 -8 7 -32 13 -54 15 -33 2 -44 -3 -67 -27 -16 -16 -27 -32 -25 -35
4 -6 -23 -30 -59 -54 -27 -18 -102 -96 -100 -104 1 -4 -13 -20 -31 -36 -41
-38 -90 -41 -104 -7 -16 36 -5 64 34 94 36 27 101 91 153 149 14 16 41 40 59
54 38 29 46 69 23 114 -14 27 -14 31 1 42 33 24 67 8 137 -62z"/>
<path d="M752 3481 c-30 -23 -38 -54 -41 -160 l-3 -94 48 -43 c41 -38 45 -46
34 -60 -9 -10 -22 -14 -39 -10 -14 4 -37 9 -51 12 -65 14 -103 -27 -106 -115
-2 -65 13 -100 56 -131 40 -28 39 -55 -4 -75 -33 -16 -57 -50 -52 -76 1 -8 10
-28 19 -46 23 -44 22 -48 -19 -87 -34 -32 -35 -35 -38 -120 -4 -100 11 -143
59 -165 51 -24 57 -46 21 -82 -51 -52 -63 -122 -30 -179 19 -31 76 -54 93 -37
6 6 11 8 11 4 0 -4 9 -3 21 3 26 14 69 5 69 -14 0 -8 -15 -27 -34 -43 -50 -42
-57 -64 -55 -161 2 -128 23 -157 107 -151 37 3 66 25 77 59 7 22 22 28 89 36
45 6 55 3 81 -18 63 -52 94 -59 123 -28 14 15 18 33 17 65 -2 24 -5 47 -8 52
-3 4 1 17 8 27 17 23 74 24 135 3 54 -19 131 -15 168 9 15 9 38 31 52 48 48
60 111 116 130 116 10 0 21 4 24 8 3 5 60 9 128 10 173 2 174 2 212 79 26 52
51 69 91 64 47 -6 61 -73 23 -109 -13 -11 -35 -24 -51 -27 -15 -4 -37 -20 -48
-36 -18 -26 -21 -46 -23 -162 -1 -77 -7 -141 -14 -153 -6 -12 -9 -23 -7 -26 6
-6 -62 -76 -116 -120 -60 -48 -79 -105 -60 -182 36 -148 24 -181 -64 -172 -97
9 -127 -49 -61 -121 29 -34 33 -43 31 -89 -4 -65 -17 -89 -58 -109 -19 -9 -34
-21 -35 -28 0 -7 -3 -24 -5 -39 -5 -32 18 -84 41 -93 35 -15 191 -18 222 -5
16 7 30 15 30 19 0 12 51 61 64 61 21 0 25 -32 11 -85 -8 -35 -9 -54 -1 -71
10 -22 51 -48 86 -55 32 -6 87 12 120 41 47 40 67 39 85 -8 21 -50 56 -65 157
-63 86 2 103 7 142 46 30 30 39 31 80 7 17 -10 37 -18 44 -16 6 1 19 2 27 3 8
0 26 19 40 41 14 22 33 40 41 40 15 0 64 -47 64 -61 0 -11 51 -22 105 -24 85
-2 135 44 120 112 -18 83 -18 83 0 89 13 5 29 -5 59 -38 l41 -46 75 -1 c130
-2 191 25 192 85 2 81 -2 88 -54 100 -5 1 -11 3 -15 4 -5 1 -15 3 -23 4 -12 1
-15 15 -14 67 1 57 5 72 32 111 18 26 34 57 36 70 7 47 -32 89 -86 92 -43 3
-88 28 -94 53 -4 13 -3 45 1 71 4 26 9 73 10 105 3 53 0 62 -27 93 -16 19 -36
34 -43 34 -7 0 -15 3 -17 8 -1 4 -19 19 -39 34 -40 30 -57 74 -63 173 -3 33
-5 60 -6 60 -2 0 -6 22 -14 77 -7 44 -38 119 -58 139 -8 8 -43 39 -77 69 -106
94 -115 110 -117 215 -2 115 -8 144 -41 202 -31 57 -163 189 -219 219 -49 27
-129 43 -215 42 -36 0 -77 5 -90 12 -23 12 -139 125 -139 135 0 11 -55 55 -90
74 -30 16 -52 22 -130 37 -19 4 -102 13 -156 19 -63 5 -99 29 -143 93 -65 96
-89 105 -221 81 -103 -18 -135 -2 -144 74 -7 54 -10 61 -34 83 -25 22 -87 27
-100 8 -23 -33 -75 -55 -137 -58 l-65 -3 -16 53 c-12 44 -20 54 -37 55 -12 0
-36 2 -53 3 -17 2 -40 -4 -52 -13z m162 -136 c8 -33 63 -85 89 -85 21 0 39 10
101 54 27 19 28 19 46 0 11 -10 22 -34 25 -52 14 -81 61 -102 188 -84 116 16
133 11 179 -57 58 -85 98 -106 223 -117 109 -9 120 -11 155 -19 61 -13 93 -36
190 -135 108 -109 130 -119 267 -121 116 -1 155 -21 266 -134 71 -72 96 -131
93 -225 -1 -41 0 -79 3 -85 3 -5 6 -20 7 -33 4 -37 47 -92 130 -168 42 -38 85
-87 95 -110 22 -46 29 -82 44 -234 7 -74 22 -130 36 -130 5 0 9 -6 9 -14 0 -7
19 -26 43 -42 96 -64 94 -59 83 -245 -5 -84 -5 -86 22 -112 16 -15 41 -29 58
-31 16 -2 37 -7 47 -11 23 -10 22 -60 -1 -77 -69 -49 -48 -134 42 -172 34 -14
35 -16 25 -46 -19 -53 -68 -62 -129 -22 -14 9 -31 17 -39 18 -20 4 -45 45 -44
74 0 14 7 48 15 75 8 28 12 60 10 73 -6 39 -63 83 -157 121 -82 33 -94 42
-142 101 -29 36 -58 82 -65 103 -10 33 -9 41 9 65 31 42 62 35 100 -20 17 -26
39 -69 48 -95 31 -83 79 -109 126 -67 21 19 17 45 -13 93 -13 20 -34 58 -47
84 -14 31 -41 61 -72 85 -27 20 -49 43 -50 52 0 8 -2 62 -4 120 -2 58 -6 116
-10 130 -3 14 -7 30 -9 35 -9 37 -54 99 -110 153 -71 67 -157 187 -157 218 -1
10 3 33 7 49 20 83 -4 167 -59 205 -18 12 -43 37 -57 56 -52 71 -134 96 -230
70 -29 -7 -45 -7 -62 3 -79 42 -149 95 -192 147 -43 52 -127 110 -171 119 -29
6 -163 17 -195 15 -88 -3 -78 -8 -141 72 -16 20 -64 52 -123 82 l-96 49 -24
-22 c-47 -44 -24 -89 61 -121 87 -32 143 -75 143 -109 0 -19 -8 -34 -25 -45
-34 -22 -54 -20 -99 10 -39 27 -44 31 -102 78 -20 16 -42 51 -59 93 -53 132
-72 158 -121 172 -24 6 -47 5 -80 -5 -70 -21 -116 -18 -133 8 -34 55 -61 108
-54 108 4 0 2 5 -4 11 -20 20 6 63 43 71 29 6 42 -1 48 -27z m175 -301 c12
-15 21 -33 21 -40 0 -28 53 -123 87 -157 51 -51 169 -128 211 -138 47 -10 91
8 143 61 49 49 66 54 187 47 149 -8 133 0 267 -128 44 -42 104 -88 133 -103
40 -20 52 -32 52 -49 0 -36 -24 -60 -61 -63 -31 -2 -43 7 -134 101 -117 121
-175 155 -266 155 -44 0 -70 -7 -115 -31 -33 -17 -68 -39 -80 -50 -11 -10 -24
-16 -27 -12 -4 3 -7 2 -7 -4 0 -11 -25 -21 -68 -30 -32 -5 -84 13 -118 42 -15
13 -54 39 -87 57 -77 43 -128 95 -163 165 -37 76 -67 103 -115 103 -33 0 -68
-19 -70 -38 0 -4 -2 -15 -4 -26 -4 -22 35 -63 73 -77 16 -5 36 -25 47 -47 30
-56 80 -106 138 -137 28 -16 69 -43 90 -62 20 -18 43 -33 50 -33 8 0 22 -9 31
-19 33 -36 135 -43 191 -13 16 9 35 17 42 18 7 1 32 18 55 37 106 85 204 74
302 -34 27 -30 64 -70 82 -90 37 -40 103 -75 149 -80 68 -6 113 27 146 108 23
58 44 73 101 73 30 0 68 -23 68 -42 0 -5 -53 -61 -117 -124 l-118 -116 -60 5
c-66 5 -93 15 -143 51 -37 28 -96 29 -167 4 -40 -14 -125 -16 -178 -4 -15 4
-52 22 -81 41 -63 40 -109 53 -186 50 -99 -4 -167 -50 -226 -154 -74 -129 -89
-150 -123 -168 -47 -25 -137 -22 -188 6 -11 5 -39 12 -63 15 -65 7 -75 23 -45
68 16 23 25 51 25 75 0 54 9 63 70 70 54 6 100 36 100 65 -1 48 -77 79 -112
45 -22 -22 -82 -54 -98 -52 -8 1 -21 3 -28 3 -18 3 -40 59 -34 88 8 41 44 58
95 46 42 -11 222 -8 258 3 43 14 47 95 5 117 -25 14 -37 13 -96 -14 -33 -16
-65 -21 -123 -21 -94 1 -105 8 -89 60 21 66 27 71 59 45 54 -44 71 -48 101
-25 47 35 36 79 -27 108 -33 14 -44 27 -58 64 -10 25 -28 55 -40 67 -12 11
-27 32 -32 46 -13 35 3 48 76 58 32 5 76 11 98 15 22 4 50 8 63 9 12 2 26 6
29 10 3 3 23 6 44 6 29 0 42 -6 58 -26z m1455 -636 c21 -30 20 -81 -2 -108 -9
-12 -42 -31 -72 -43 -62 -25 -97 -73 -94 -129 1 -18 3 -33 4 -33 1 0 3 -7 5
-16 4 -23 55 -109 64 -109 19 0 154 -137 170 -173 30 -66 14 -158 -39 -214
-33 -37 -73 -126 -75 -173 -2 -53 43 -146 106 -219 21 -23 38 -46 37 -50 -2
-12 16 -46 39 -71 13 -14 23 -27 23 -31 0 -3 27 -20 60 -39 33 -18 63 -43 66
-54 15 -48 44 -76 79 -76 45 0 70 35 62 86 -6 33 -40 76 -65 81 -20 4 -113 63
-135 86 -12 12 -41 54 -64 92 -22 39 -55 87 -71 108 -27 33 -30 45 -28 94 1
34 7 58 14 61 7 2 12 8 12 13 0 5 16 31 35 58 48 67 66 122 61 192 -6 84 -43
143 -155 249 -81 76 -96 95 -98 123 -3 36 20 66 53 71 23 4 36 -9 64 -63 12
-24 62 -86 111 -138 108 -115 123 -152 117 -298 l-4 -93 -52 -56 c-29 -30 -53
-61 -53 -68 -1 -7 -3 -24 -4 -38 -3 -26 34 -120 47 -120 5 0 8 -5 8 -11 0 -10
56 -84 93 -121 21 -22 94 -61 120 -65 31 -5 76 -32 88 -54 10 -19 9 -39 -7
-109 -12 -56 -16 -76 -19 -100 -2 -14 -4 -25 -5 -25 -1 0 -3 -21 -4 -46 -2
-26 -6 -52 -10 -58 -13 -21 -54 -11 -89 22 -18 17 -40 33 -47 35 -42 10 -80
33 -80 49 -1 27 -31 61 -62 68 -19 5 -32 1 -47 -14 -29 -29 -26 -52 10 -97
l30 -39 -21 -17 c-12 -10 -28 -18 -35 -18 -7 0 -20 -3 -28 -6 -8 -3 -21 1 -29
9 -23 23 -16 160 11 220 31 66 22 103 -25 112 -38 7 -83 -14 -85 -38 -7 -99
-6 -221 2 -255 11 -50 -2 -77 -42 -91 -35 -12 -93 16 -97 49 -2 13 12 47 33
82 31 49 36 65 30 94 -3 19 -10 32 -15 29 -5 -3 -12 0 -15 6 -8 13 -52 4 -69
-14 -12 -14 -14 -20 -22 -80 -6 -52 -15 -61 -62 -64 -20 -1 -56 -12 -79 -25
-47 -25 -61 -20 -68 25 -11 63 -14 74 -27 107 -18 43 -17 126 1 160 21 38 43
56 118 96 137 73 189 131 201 221 11 86 -3 159 -42 218 -19 28 -37 64 -42 80
-10 38 -12 165 -3 165 7 0 22 66 24 110 2 35 -12 71 -41 101 -20 21 -25 39
-31 103 l-6 77 89 87 c49 48 97 99 107 115 21 33 50 35 71 5z m-1073 -97 c9
-1 37 -17 63 -36 25 -20 46 -33 46 -30 0 2 21 -3 48 -13 53 -20 140 -21 212
-2 25 7 59 14 75 15 32 2 74 -13 76 -27 5 -32 1 -43 -24 -62 -22 -16 -41 -20
-90 -19 -107 3 -216 -14 -261 -41 -23 -13 -66 -52 -96 -85 -65 -72 -100 -87
-162 -71 -60 17 -75 19 -139 26 -52 6 -58 5 -72 -17 -8 -13 -18 -40 -21 -60
-10 -55 -26 -64 -73 -42 -53 26 -82 19 -138 -32 -27 -25 -52 -45 -56 -45 -15
0 -39 32 -39 52 0 29 29 88 58 121 23 24 33 27 89 27 35 0 79 6 98 14 46 20
104 80 139 147 47 89 94 146 135 166 34 17 54 19 132 14z m771 -345 c13 -25
12 -94 -2 -132 -18 -45 -22 -142 -8 -187 7 -23 13 -46 13 -52 1 -16 26 -58 47
-81 11 -12 22 -37 25 -55 20 -117 -20 -180 -157 -249 -25 -12 -47 -25 -50 -29
-3 -3 -21 -18 -42 -33 -59 -45 -82 -91 -88 -182 l-5 -80 -45 -32 c-57 -41
-110 -52 -133 -29 -24 23 -22 28 28 85 49 55 55 83 31 142 -8 19 -11 39 -7 46
4 6 30 16 60 23 69 14 79 35 62 122 -6 34 -14 73 -17 87 -3 14 -7 33 -10 42
-6 20 16 98 27 98 5 0 38 30 74 67 81 83 95 124 99 287 2 105 4 118 25 140 27
29 58 30 73 2z"/>
<path d="M1185 2552 c-52 -11 -139 -100 -180 -184 -22 -44 -40 -67 -61 -77
-41 -19 -71 -48 -69 -69 3 -42 41 -72 81 -64 23 4 79 53 79 70 1 4 13 27 29
52 15 25 35 56 44 70 17 27 72 80 84 80 18 0 45 44 46 75 1 38 -18 55 -53 47z"/>
<path d="M1593 2519 c-18 -18 -16 -74 3 -90 8 -7 45 -14 82 -15 37 -1 78 -5
92 -9 62 -17 68 -17 89 4 26 26 28 76 4 86 -10 5 -36 9 -58 11 -47 4 -92 9
-155 19 -31 5 -49 3 -57 -6z"/>
<path d="M2411 1843 c-8 -20 -8 -38 -1 -63 5 -19 10 -65 10 -101 0 -74 20
-109 61 -109 53 0 60 23 45 140 -4 30 -9 69 -11 85 -8 66 -15 75 -55 75 -32 0
-39 -4 -49 -27z"/>
<path d="M2469 1218 c-8 -7 -32 -35 -53 -61 -34 -43 -139 -116 -158 -109 -5 1
-8 -2 -8 -6 0 -4 -14 -16 -30 -25 -58 -35 -73 -110 -26 -140 34 -21 67 -6 96
43 20 35 40 52 90 78 110 56 197 163 177 216 -8 19 -66 22 -88 4z"/>
<path d="M1490 2228 c-14 -6 -41 -19 -60 -27 -19 -9 -63 -31 -97 -50 -53 -28
-64 -39 -69 -66 -8 -44 10 -75 43 -75 26 0 103 45 103 60 0 6 37 24 107 51 12
4 30 20 39 35 16 24 16 29 3 53 -17 30 -34 34 -69 19z"/>
<path d="M2145 1534 c-14 -15 -25 -34 -25 -42 0 -19 -51 -112 -61 -112 -5 0
-17 -17 -28 -37 -23 -47 -12 -79 31 -88 46 -10 71 15 126 127 66 134 68 142
40 162 -32 23 -55 20 -83 -10z"/>
<path d="M1907 1964 c-3 -3 -37 -7 -77 -10 -80 -5 -119 -21 -158 -66 -15 -17
-75 -79 -134 -139 -68 -70 -105 -115 -103 -127 2 -9 4 -20 4 -24 3 -24 44 -48
81 -48 39 0 40 -1 41 -35 2 -49 2 -50 21 -68 26 -26 76 -22 101 9 12 15 44 47
71 73 142 135 196 190 197 203 1 7 3 22 5 33 7 49 12 148 7 160 -6 17 -49 46
-56 39z m-47 -120 c18 -32 7 -64 -35 -104 -20 -19 -66 -65 -103 -102 -67 -66
-103 -85 -140 -73 -17 5 -19 11 -12 35 4 16 6 30 4 33 -2 2 43 52 101 111 125
127 161 147 185 100z"/>
<path d="M1307 1747 c-56 -58 -95 -116 -101 -149 -3 -13 -5 -23 -6 -23 -1 0
-4 -11 -6 -25 -11 -61 -82 -85 -141 -49 -40 25 -53 47 -42 74 29 72 -22 117
-95 83 -33 -14 -53 -46 -65 -98 -8 -38 -7 -44 21 -75 16 -19 39 -37 51 -41 12
-3 56 -28 97 -55 41 -26 86 -50 100 -52 38 -6 76 18 102 65 12 23 28 43 35 45
7 3 25 -10 40 -27 33 -36 85 -88 131 -129 40 -36 35 -55 -24 -82 -32 -15 -46
-29 -54 -53 -13 -41 -6 -60 53 -152 24 -38 47 -79 51 -91 4 -12 21 -34 38 -48
39 -33 89 -32 138 4 19 13 36 25 37 26 1 0 5 19 8 40 5 32 2 44 -13 61 -19 19
-25 21 -66 11 -52 -12 -61 -7 -92 50 -35 64 -3 122 77 137 47 8 79 26 143 76
86 67 98 117 34 139 -37 13 -59 3 -86 -41 -20 -32 -82 -78 -82 -61 0 4 -4 2
-8 -5 -11 -16 -58 19 -68 51 -20 65 -47 105 -84 126 -22 12 -40 20 -40 17 0
-3 -15 3 -32 13 -45 24 -60 55 -43 88 13 24 84 93 96 93 14 0 16 39 4 67 -22
52 -52 50 -108 -10z"/>
</g>
</svg>
